<?xml version="1.0" encoding="UTF-8" standalone="no"?>
<!DOCTYPE svg PUBLIC "-//W3C//DTD SVG 1.1//EN" "http://www.w3.org/Graphics/SVG/1.1/DTD/svg11.dtd">
<svg width="100%" height="100%" viewBox="0 0 1024 768" version="1.1" xmlns="http://www.w3.org/2000/svg" xmlns:xlink="http://www.w3.org/1999/xlink" xml:space="preserve" xmlns:serif="http://www.serif.com/" style="fill-rule:evenodd;clip-rule:evenodd;stroke-linecap:round;stroke-miterlimit:3;">
    <g transform="matrix(0.767531,0,0,0.767531,62.8487,26.9418)">
        <circle cx="566.456" cy="471.897" r="296.103" style="fill:white;"/>
    </g>
    <g transform="matrix(0.884308,0,0,0.894803,71.0823,7.84096)">
        <path d="M485.949,153.94C642.337,153.94 769.304,279.093 769.304,433.246C769.304,587.398 642.337,712.551 485.949,712.551C329.561,712.551 202.594,587.398 202.594,433.246C202.594,279.093 329.561,153.94 485.949,153.94ZM485.949,176.362C629.783,176.362 746.558,291.468 746.558,433.246C746.558,575.023 629.783,690.129 485.949,690.129C342.115,690.129 225.34,575.023 225.34,433.246C225.34,291.468 342.115,176.362 485.949,176.362Z" style="fill:rgb(173,173,173);stroke:black;stroke-width:0.06px;"/>
    </g>
    <g transform="matrix(1,0,0,1,14.8619,-33.5095)">
        <path d="M229.268,314.94C211.699,351.975 202.594,392.361 202.594,433.246C202.594,587.398 329.561,712.551 485.949,712.551C642.337,712.551 769.304,587.398 769.304,433.246C769.304,278.99 642.442,153.94 485.949,153.94L485.949,223.767C603.319,223.767 698.465,317.554 698.465,433.246C698.465,548.86 603.24,642.724 485.949,642.724C368.658,642.724 273.432,548.86 273.432,433.246C273.432,402.582 280.262,372.293 293.438,344.516L229.268,314.94Z" style="fill:rgb(255,102,5);stroke:black;stroke-width:0.05px;"/>
    </g>
    <g transform="matrix(1.04084,0.509628,-0.342369,0.699236,88.2118,-13.0388)">
        <path d="M289.545,277.55C292.243,267.535 293.664,256.175 293.664,244.611C293.664,208.253 279.888,178.734 262.919,178.734C245.951,178.734 232.174,208.253 232.174,244.611C232.174,256.175 233.595,267.535 236.293,277.55L289.545,277.55Z" style="fill:rgb(255,102,5);"/>
    </g>
    <g transform="matrix(-0.0972512,-1.12577,0.775666,-0.0670069,339.841,467.7)">
        <path d="M289.545,277.55C292.243,267.535 293.664,256.175 293.664,244.611C293.664,208.253 279.888,178.734 262.919,178.734C245.951,178.734 232.174,208.253 232.174,244.611C232.174,256.175 233.595,267.535 236.293,277.55L289.545,277.55Z" style="fill:rgb(255,102,5);"/>
    </g>
    <g transform="matrix(1,0,0,1,-18.5192,-78.4292)">
        <text x="373.23px" y="532.517px" style="font-family:'Futura-Medium', 'Futura', sans-serif;font-weight:500;font-size:144px;fill:rgb(89,89,89);">80%</text>
    </g>
</svg>
