<?xml version="1.0" encoding="UTF-8" standalone="no"?>
<!DOCTYPE svg PUBLIC "-//W3C//DTD SVG 1.1//EN" "http://www.w3.org/Graphics/SVG/1.1/DTD/svg11.dtd">
<svg width="100%" height="100%" viewBox="0 0 800 600" version="1.1" xmlns="http://www.w3.org/2000/svg" xmlns:xlink="http://www.w3.org/1999/xlink" xml:space="preserve" xmlns:serif="http://www.serif.com/" style="fill-rule:evenodd;clip-rule:evenodd;stroke-linejoin:round;stroke-miterlimit:2;">
    <g transform="matrix(1.5927,0,0,1.61466,-175.596,-142.285)">
        <path d="M547.195,147.08C547.195,114.475 520.359,88.004 487.305,88.004L235.49,88.004C202.435,88.004 175.599,114.475 175.599,147.08L175.599,400.524C175.599,433.129 202.435,459.6 235.49,459.6L487.305,459.6C520.359,459.6 547.195,433.129 547.195,400.524L547.195,147.08Z" style="fill:rgb(184,12,9);"/>
    </g>
    <g transform="matrix(0.994858,0.10128,-0.10128,0.994858,-191.19,-285.157)">
        <path d="M400,257.701L500.394,351.536L400,351.536L400,257.701Z" style="fill:rgb(251,251,255);"/>
    </g>
    <g transform="matrix(1.16168,1.14286,-1.11961,1.13805,282.63,-454.684)">
        <path d="M383.509,137.232C306.776,137.232 244.571,200.195 244.571,277.864C244.571,355.481 306.827,418.496 383.509,418.496C460.243,418.496 522.448,355.533 522.448,277.864L452.978,277.864C452.978,316.698 421.876,348.18 383.509,348.18C345.168,348.18 314.04,316.672 314.04,277.864C314.04,239.03 345.142,207.548 383.509,207.548L383.509,137.232Z" style="fill:rgb(251,251,255);"/>
    </g>
    <g transform="matrix(0.994858,0.10128,-0.10128,0.994858,18.6983,-44.1658)">
        <path d="M400,257.701L500.394,351.536L400,351.536L400,257.701Z" style="fill:rgb(251,251,255);"/>
    </g>
    <g transform="matrix(0.933946,-0.357415,0.357415,0.933946,-83.9808,167.44)">
        <path d="M400,299.812L422.026,322.043L400,322.043L400,299.812Z" style="fill:rgb(251,251,255);"/>
    </g>
</svg>
